<svg width="20" height="20" viewBox="0 0 20 20" fill="none" xmlns="http://www.w3.org/2000/svg">
<path d="M17.5625 0.125H2.4375C1.27734 0.125 0.375 1.07031 0.375 2.1875V17.3125C0.375 18.4727 1.27734 19.375 2.4375 19.375H17.5625C18.6797 19.375 19.625 18.4727 19.625 17.3125V2.1875C19.625 1.07031 18.6797 0.125 17.5625 0.125ZM4.32812 11.4688C4.02734 11.4688 3.8125 11.2539 3.8125 10.9531V8.54688C3.8125 8.28906 4.02734 8.03125 4.32812 8.03125H15.6719C15.9297 8.03125 16.1875 8.28906 16.1875 8.54688V10.9531C16.1875 11.2539 15.9297 11.4688 15.6719 11.4688H4.32812Z" fill="#EE1515"/>
</svg>
