<svg width="21" height="24" viewBox="0 0 21 24" fill="none" xmlns="http://www.w3.org/2000/svg">
<path d="M1.5 21.75C1.5 23.0156 2.48438 24 3.75 24H17.25C18.4688 24 19.5 23.0156 19.5 21.75V6H1.5V21.75ZM5.76562 13.6875L9.9375 9.23438C10.0781 9.09375 10.2656 9 10.5 9C10.6875 9 10.875 9.09375 11.0156 9.23438L15.1875 13.6875C15.6562 14.1562 15.3281 15 14.6719 15H12V20.25C12 20.6719 11.625 21 11.25 21H9.75C9.32812 21 9 20.6719 9 20.25V15H6.28125C5.625 15 5.29688 14.1562 5.76562 13.6875ZM20.25 1.5H14.625L14.1562 0.65625C13.9688 0.28125 13.5938 0 13.1719 0H7.78125C7.35938 0 6.98438 0.28125 6.79688 0.65625L6.375 1.5H0.75C0.328125 1.5 0 1.875 0 2.25V3.75C0 4.17188 0.328125 4.5 0.75 4.5H20.25C20.625 4.5 21 4.17188 21 3.75V2.25C21 1.875 20.625 1.5 20.25 1.5Z" fill="#262626"/>
</svg>
